<svg width="25" height="25" viewBox="0 0 25 25" fill="none" xmlns="http://www.w3.org/2000/svg">
<path d="M22.3206 19.2109C22.3206 19.5709 22.2406 19.9409 22.0706 20.3009C21.9006 20.6609 21.6806 21.0009 21.3906 21.3209C20.9006 21.8609 20.3606 22.2509 19.7506 22.5009C19.1506 22.7509 18.5006 22.8809 17.8006 22.8809C16.7806 22.8809 15.6906 22.6409 14.5406 22.1509C13.3906 21.6609 12.2406 21.0009 11.1006 20.1709C9.95059 19.3309 8.86059 18.4009 7.82059 17.3709C6.79059 16.3309 5.86059 15.2409 5.03059 14.1009C4.21059 12.9609 3.55059 11.8209 3.07059 10.6909C2.59059 9.55086 2.35059 8.46086 2.35059 7.42086C2.35059 6.74086 2.47059 6.09086 2.71059 5.49086C2.95059 4.88086 3.33059 4.32086 3.86059 3.82086C4.50059 3.19086 5.20059 2.88086 5.94059 2.88086C6.22059 2.88086 6.50059 2.94086 6.75059 3.06086C7.01059 3.18086 7.24059 3.36086 7.42059 3.62086L9.74059 6.89086C9.92059 7.14086 10.0506 7.37086 10.1406 7.59086C10.2306 7.80086 10.2806 8.01086 10.2806 8.20086C10.2806 8.44086 10.2106 8.68086 10.0706 8.91086C9.94059 9.14086 9.75059 9.38086 9.51059 9.62086L8.75059 10.4109C8.64059 10.5209 8.59059 10.6509 8.59059 10.8109C8.59059 10.8909 8.60059 10.9609 8.62059 11.0409C8.65059 11.1209 8.68059 11.1809 8.70059 11.2409C8.88059 11.5709 9.19059 12.0009 9.63059 12.5209C10.0806 13.0409 10.5606 13.5709 11.0806 14.1009C11.6206 14.6309 12.1406 15.1209 12.6706 15.5709C13.1906 16.0109 13.6206 16.3109 13.9606 16.4909C14.0106 16.5109 14.0706 16.5409 14.1406 16.5709C14.2206 16.6009 14.3006 16.6109 14.3906 16.6109C14.5606 16.6109 14.6906 16.5509 14.8006 16.4409L15.5606 15.6909C15.8106 15.4409 16.0506 15.2509 16.2806 15.1309C16.5106 14.9909 16.7406 14.9209 16.9906 14.9209C17.1806 14.9209 17.3806 14.9609 17.6006 15.0509C17.8206 15.1409 18.0506 15.2709 18.3006 15.4409L21.6106 17.7909C21.8706 17.9709 22.0506 18.1809 22.1606 18.4309C22.2606 18.6809 22.3206 18.9309 22.3206 19.2109Z" stroke="#292D32" stroke-width="1.5" stroke-miterlimit="10">
</svg>
