<svg width="25" height="25" viewBox="0 0 25 25" fill="none" xmlns="http://www.w3.org/2000/svg">
<path d="M9.35059 22.8809H15.3506C20.3506 22.8809 22.3506 20.8809 22.3506 15.8809V9.88086C22.3506 4.88086 20.3506 2.88086 15.3506 2.88086H9.35059C4.35059 2.88086 2.35059 4.88086 2.35059 9.88086V15.8809C2.35059 20.8809 4.35059 22.8809 9.35059 22.8809Z" stroke="#292D32" stroke-width="1.5" stroke-linecap="round" stroke-linejoin="round">
<path d="M12.3506 16.3809C14.2836 16.3809 15.8506 14.8139 15.8506 12.8809C15.8506 10.9479 14.2836 9.38086 12.3506 9.38086C10.4176 9.38086 8.85059 10.9479 8.85059 12.8809C8.85059 14.8139 10.4176 16.3809 12.3506 16.3809Z" stroke="#292D32" stroke-width="1.5" stroke-linecap="round" stroke-linejoin="round">
<path d="M17.9867 7.88086H17.9983" stroke="#292D32" stroke-width="2" stroke-linecap="round" stroke-linejoin="round">
</svg>
